<?xml version="1.0"?>
<svg xmlns="http://www.w3.org/2000/svg" id="Layer_1" viewBox="0 0 512 512">
  <path d="M387.12,249.75v112.39h-12.49v-49.95h-24.97v-12.48h24.97v-49.96h12.49ZM362.15,374.63v24.98h12.48v-37.47h-12.48v12.49ZM349.66,412.1v12.48h12.49v-24.97h-12.49v12.49ZM337.17,437.07h12.49v-12.49h-12.49v12.49ZM337.17,249.75v49.96h12.49v-49.96h24.97v-12.48h-24.97v-12.49h-12.49v24.97ZM312.2,437.07h-99.91v12.49h124.88v-12.49h-24.97ZM312.2,299.71h-12.49v12.48h37.46v-12.48h-24.97ZM299.71,112.39v112.39h37.46v-12.49h-24.97v-124.88h-12.49v24.98ZM299.71,87.41v-12.49h-12.49v12.49h12.49ZM299.71,274.73v-49.95h-12.49v49.95h-12.49v37.46h12.49v-12.48h12.49v-24.98ZM287.22,74.92v-12.48h-24.98v12.48h24.98ZM262.24,74.92h-12.48v12.49h12.48v-12.49ZM249.76,312.19h-49.96v37.47h12.49v-24.98h62.44v-12.49h-24.97ZM249.76,199.8v-112.39h-12.49v124.88h12.49v-12.49ZM237.27,224.78v-12.49h-12.49v12.49h12.49ZM212.29,199.8v12.49h12.49v-37.46h-12.49v24.97ZM199.8,424.58v12.49h12.49v-12.49h-12.49ZM199.8,162.34v12.49h12.49v-37.47h-12.49v24.98ZM199.8,399.61h-12.48v24.97h12.48v-24.97ZM187.32,137.36h12.48v-24.97h-12.48v24.97ZM187.32,112.39v-12.49h-12.49v12.49h12.49ZM187.32,374.63h-12.49v24.98h12.49v-24.98ZM174.83,349.66h-12.49v24.97h12.49v-24.97ZM174.83,274.73h99.9v-12.49h-99.9v-37.46h-12.49v37.46h-12.49v12.49h24.98ZM162.34,99.9h12.49v-12.49h-37.46v12.49h24.97ZM149.85,337.17v12.49h12.49v-12.49h-12.49ZM162.34,199.8v-12.49h-12.49v37.47h12.49v-24.98ZM149.85,312.19v-37.46h-12.48v62.44h12.48v-24.98ZM149.85,162.34v-12.49h-12.48v37.46h12.48v-24.97ZM137.37,124.88v-24.98h-12.49v49.95h12.49v-24.97Z"
        fill="#ffffff" stroke="#000000" stroke-width="2"/>
</svg>